HIERARCHY
ROOT Hips
{
	OFFSET 0.000000 0.000000 0.000000 
	CHANNELS 6 Xposition Yposition Zposition Zrotation Yrotation Xrotation
	JOINT LeftUpLeg
	{
		OFFSET 1.363060 -1.794630 0.839290 
		CHANNELS 3 Zrotation Yrotation Xrotation
		JOINT LeftLeg
		{
			OFFSET 2.448110 -6.726130 0.000000 
			CHANNELS 3 Zrotation Yrotation Xrotation
			JOINT LeftFoot
			{
				OFFSET 2.562200 -7.039590 0.000000 
				CHANNELS 3 Zrotation Yrotation Xrotation
				JOINT LeftToeBase
				{
					OFFSET 0.157640 -0.433110 2.322550 
					CHANNELS 3 Zrotation Yrotation Xrotation
					End Site
					{
						OFFSET 0.000000 0.000000 0.000000 
					}
				}
			}
		}
	}
	JOINT RightUpLeg
	{
		OFFSET -1.305520 -1.794630 0.839290 
		CHANNELS 3 Zrotation Yrotation Xrotation
		JOINT RightLeg
		{
			OFFSET -2.542530 -6.985550 0.000000 
			CHANNELS 3 Zrotation Yrotation Xrotation
			JOINT RightFoot
			{
				OFFSET -2.568260 -7.056230 0.000000 
				CHANNELS 3 Zrotation Yrotation Xrotation
				JOINT RightToeBase
				{
					OFFSET -0.164730 -0.452590 2.363150 
					CHANNELS 3 Zrotation Yrotation Xrotation
					End Site
					{
						OFFSET 0.000000 0.000000 0.000000 
					}
				}
			}
		}
	}
	JOINT Spine
	{
		OFFSET 0.028270 2.035590 -0.193380 
		CHANNELS 3 Zrotation Yrotation Xrotation
		JOINT Spine1
		{
			OFFSET 0.056720 2.048850 -0.042750 
			CHANNELS 3 Zrotation Yrotation Xrotation
			JOINT Neck1
			{
				OFFSET -0.054170 1.746240 0.172020 
				CHANNELS 3 Zrotation Yrotation Xrotation
				JOINT Head
				{
					OFFSET 0.104070 1.761360 -0.123970 
					CHANNELS 3 Zrotation Yrotation Xrotation
					End Site
					{
						OFFSET 0.000000 0.000000 0.000000 
					}
				}
			}
			JOINT LeftArm
			{
				OFFSET 3.362410 1.200890 -0.311210 
				CHANNELS 3 Zrotation Yrotation Xrotation
				JOINT LeftForeArm
				{
					OFFSET 4.983000 -0.000000 -0.000000 
					CHANNELS 3 Zrotation Yrotation Xrotation
					JOINT LeftHand
					{
						OFFSET 3.483560 -0.000000 -0.000000 
						CHANNELS 3 Zrotation Yrotation Xrotation
						JOINT LeftHandIndex1
						{
							OFFSET 0.715260 -0.000000 -0.000000 
							CHANNELS 3 Zrotation Yrotation Xrotation
							End Site
							{
								OFFSET 0.000000 0.000000 0.000000 
							}
						}
					}
				}
			}
			JOINT RightArm
			{
				OFFSET -3.136600 1.374050 -0.404650 
				CHANNELS 3 Zrotation Yrotation Xrotation
				JOINT RightForeArm
				{
					OFFSET -5.241900 -0.000000 -0.000000 
					CHANNELS 3 Zrotation Yrotation Xrotation
					JOINT RightHand
					{
						OFFSET -3.444170 -0.000000 -0.000000 
						CHANNELS 3 Zrotation Yrotation Xrotation
						JOINT RightHandIndex1
						{
							OFFSET -0.622530 -0.000000 -0.000000 
							CHANNELS 3 Zrotation Yrotation Xrotation
							End Site
							{
								OFFSET 0.000000 0.000000 0.000000 
							}
						}
					}
				}
			}
		}
	}
}
MOTION
Frames: 16
Frame Time: 0.041667
2.777380 16.566808 0.478002 1.545969 13.111616 11.526638 -17.846456 -13.763490 6.467461 -2.380564 5.871530 19.185341 -3.256053 18.784973 -27.268928 0.134400 -2.362900 -6.509600 3.826907 9.143150 -36.143364 -1.100080 -15.663463 32.647229 5.075436 -20.605492 11.220722 -0.303200 3.540400 -9.787000 1.185527 -3.083439 -5.310508 -1.674745 -1.876459 -2.719765 5.716199 -2.160662 14.896180 -2.568000 0.750600 15.967000 -68.452381 -29.836044 42.702720 146.816133 -27.835096 -110.556777 3.561565 -2.193763 6.115391 -7.125000 0.000000 0.000000 65.470813 35.811365 33.881396 -146.121934 28.876582 -110.571620 -0.745271 0.674851 -13.802134 7.125000 0.000000 0.000000 
2.783308 16.567606 0.473556 1.541795 13.085236 11.491227 -17.876255 -13.725441 6.481995 -2.378315 5.873844 19.193360 -3.263856 18.806378 -27.260864 0.139200 -2.404500 -6.625000 3.809061 9.167561 -36.074135 -1.083602 -15.632273 32.564203 5.082513 -20.644896 11.275874 -0.306000 3.556400 -9.832000 1.184290 -3.081284 -5.313796 -1.669121 -1.872954 -2.765670 5.738993 -2.138008 14.900551 -2.533500 0.756100 15.930600 -68.385006 -29.804076 42.713144 146.913101 -27.704168 -110.648388 3.514074 -2.216651 6.131633 -7.125000 0.000000 0.000000 65.537832 35.753490 34.113441 -146.346552 28.657256 -110.702739 -0.750608 0.674927 -14.174370 7.125000 0.000000 0.000000 
2.788666 16.570114 0.468312 1.513215 13.091304 11.467418 -17.852947 -13.697710 6.471157 -2.377664 5.872260 19.190665 -3.250346 18.752374 -27.232593 0.134800 -2.366200 -6.518700 3.806630 9.208386 -36.009116 -1.067831 -15.605414 32.485031 5.109738 -20.733219 11.285396 -0.305500 3.553700 -9.824300 1.187544 -3.102888 -5.319995 -1.659726 -1.883964 -2.767604 5.742119 -2.141902 14.942617 -2.525300 0.759600 16.003200 -68.322019 -29.781315 42.686897 146.984415 -27.601777 -110.719429 3.476566 -2.237379 6.091881 -7.125000 0.000000 0.000000 65.524221 35.842146 34.252869 -146.445874 28.537720 -110.762162 -0.749360 0.684276 -14.449850 7.125000 0.000000 0.000000 
2.792200 16.571482 0.464550 1.510683 13.045048 11.432877 -17.873375 -13.636969 6.479743 -2.375830 5.871017 19.190277 -3.257078 18.763542 -27.212493 0.135900 -2.376300 -6.546700 3.773042 9.320067 -35.936427 -1.052929 -15.586365 32.405123 5.140863 -20.851258 11.319591 -0.308700 3.571800 -9.874900 1.188865 -3.109564 -5.323226 -1.669633 -1.883733 -2.807622 5.719235 -2.128587 14.971653 -2.574000 0.782600 15.992800 -68.219601 -29.772906 42.677772 147.000744 -27.558252 -110.745786 3.458773 -2.236523 6.001752 -7.125000 0.000000 0.000000 65.602974 35.887171 34.282637 -146.369516 28.623986 -110.712114 -0.748617 0.679057 -14.255464 7.125000 0.000000 0.000000 
2.796874 16.572964 0.460560 1.499897 13.009536 11.395568 -17.891290 -13.590687 6.498740 -2.375002 5.868295 19.186945 -3.257325 18.762401 -27.203504 0.135500 -2.372700 -6.536700 3.750738 9.403592 -35.862278 -1.037834 -15.564173 32.327566 5.165966 -20.945578 11.350286 -0.311100 3.585600 -9.913500 1.189190 -3.115466 -5.325152 -1.679618 -1.885892 -2.819406 5.711284 -2.124271 15.008487 -2.591700 0.796100 16.017000 -68.131303 -29.780729 42.659840 147.020678 -27.512673 -110.775249 3.438546 -2.241921 5.937986 -7.125000 0.000000 0.000000 65.641611 35.943997 34.319588 -146.325091 28.667448 -110.684981 -0.746314 0.677165 -14.166913 7.125000 0.000000 0.000000 
2.801776 16.574104 0.456798 1.490643 12.963479 11.352715 -17.919204 -13.543306 6.535943 -2.375823 5.860821 19.172468 -3.257725 18.767302 -27.202696 0.134300 -2.361700 -6.506400 3.724394 9.502990 -35.785807 -1.024171 -15.545861 32.257857 5.191324 -21.040101 11.375407 -0.313400 3.598600 -9.949900 1.188624 -3.117917 -5.325625 -1.693800 -1.887124 -2.820494 5.703690 -2.119109 15.052213 -2.608300 0.811000 16.053000 -68.044229 -29.810230 42.636343 147.009143 -27.502895 -110.780395 3.426955 -2.244238 5.874165 -7.125000 0.000000 0.000000 65.671295 36.012507 34.300030 -146.212941 28.777960 -110.619244 -0.742325 0.673140 -13.962543 7.125000 0.000000 0.000000 
2.806792 16.574902 0.453378 1.488190 12.907202 11.301612 -17.965120 -13.497065 6.592049 -2.377062 5.852325 19.157212 -3.256011 18.777184 -27.218338 0.132600 -2.347500 -6.467100 3.691458 9.610277 -35.702023 -1.011306 -15.528022 32.190258 5.215225 -21.130612 11.402596 -0.315600 3.611200 -9.985200 1.186435 -3.115270 -5.324727 -1.711012 -1.886517 -2.815509 5.701239 -2.111673 15.100923 -2.615300 0.826000 16.096800 -67.960454 -29.855197 42.610754 146.975990 -27.519012 -110.767689 3.422631 -2.243110 5.806424 -7.125000 0.000000 0.000000 65.690389 36.079490 34.235573 -146.053099 28.935078 -110.526255 -0.737597 0.666907 -13.682207 7.125000 0.000000 0.000000 
2.811922 16.575472 0.450186 1.491683 12.845028 11.244179 -18.024758 -13.451291 6.664106 -2.379261 5.841624 19.136910 -3.253091 18.790050 -27.243561 0.130500 -2.328900 -6.415500 3.651688 9.725477 -35.612541 -1.000131 -15.511811 32.127635 5.239039 -21.219559 11.426097 -0.317100 3.620100 -10.010200 1.183220 -3.110147 -5.322585 -1.727400 -1.885429 -2.800901 5.705389 -2.101385 15.154562 -2.610300 0.840700 16.153200 -67.880685 -29.915685 42.576657 146.925966 -27.554757 -110.741512 3.423853 -2.239364 5.732276 -7.125000 0.000000 0.000000 65.691601 36.149140 34.139766 -145.864186 29.118364 -110.416595 -0.733315 0.659267 -13.378496 7.125000 0.000000 0.000000 
2.816938 16.576042 0.446880 1.498773 12.780625 11.183234 -18.090929 -13.407439 6.744027 -2.382054 5.829542 19.113447 -3.249599 18.804279 -27.272537 0.128100 -2.306900 -6.354500 3.607044 9.848574 -35.519898 -0.990016 -15.496878 32.068731 5.264281 -21.310843 11.442956 -0.318000 3.625100 -10.024400 1.179663 -3.104321 -5.320243 -1.742310 -1.884127 -2.786978 5.712721 -2.090114 15.208373 -2.600000 0.854800 16.212300 -67.806385 -29.980542 42.540425 146.866624 -27.602213 -110.706905 3.429602 -2.232545 5.665383 -7.125000 0.000000 0.000000 65.677370 36.213561 34.032139 -145.669853 29.304579 -110.303347 -0.730249 0.650905 -13.104298 7.125000 0.000000 0.000000 
2.821726 16.576498 0.443346 1.510583 12.717968 11.122049 -18.160394 -13.362207 6.822808 -2.384666 5.818136 19.090876 -3.247048 18.819645 -27.298510 0.125800 -2.286300 -6.297700 3.556982 9.976120 -35.425413 -0.981032 -15.482660 32.010952 5.291956 -21.407862 11.455468 -0.318600 3.628100 -10.032800 1.176253 -3.100477 -5.317784 -1.752723 -1.883643 -2.770958 5.724035 -2.074251 15.261856 -2.583500 0.869600 16.275200 -67.732956 -30.048895 42.495591 146.805226 -27.651695 -110.670154 3.437519 -2.224893 5.593942 -7.125000 0.000000 0.000000 65.648594 36.271664 33.932633 -145.491446 29.473818 -110.198061 -0.729223 0.642907 -12.890069 7.125000 0.000000 0.000000 
2.826286 16.577068 0.439698 1.521597 12.660507 11.064023 -18.223906 -13.316332 6.891747 -2.386576 5.808646 19.072774 -3.245153 18.832929 -27.318501 0.123700 -2.267600 -6.245900 3.506627 10.105035 -35.332124 -0.972075 -15.468388 31.951871 5.322085 -21.511988 11.465094 -0.318600 3.628400 -10.033400 1.173674 -3.100212 -5.315753 -1.761164 -1.884766 -2.756027 5.734389 -2.058587 15.312897 -2.569600 0.884700 16.337900 -67.657997 -30.115959 42.443549 146.741875 -27.703153 -110.631342 3.447479 -2.216762 5.536364 -7.125000 0.000000 0.000000 65.608626 36.319269 33.853714 -145.345122 29.610904 -110.110650 -0.730304 0.635673 -12.760227 7.125000 0.000000 0.000000 
2.830504 16.577866 0.435936 1.528999 12.609025 11.012336 -18.276755 -13.269869 6.944971 -2.387264 5.802205 19.061242 -3.245154 18.845948 -27.330104 0.122200 -2.253200 -6.206100 3.458333 10.235376 -35.242372 -0.962395 -15.453761 31.889895 5.355356 -21.624936 11.470239 -0.318500 3.628000 -10.032400 1.172236 -3.103921 -5.314601 -1.767114 -1.887586 -2.745217 5.744253 -2.040598 15.358059 -2.558200 0.900500 16.393800 -67.581792 -30.182091 42.384120 146.674519 -27.757848 -110.590003 3.458173 -2.210816 5.503600 -7.125000 0.000000 0.000000 65.560921 36.350720 33.799906 -145.240532 29.707347 -110.047629 -0.732420 0.630084 -12.725087 7.125000 0.000000 0.000000 
2.834722 16.578892 0.432402 1.529129 12.563743 10.966700 -18.315795 -13.224547 6.983939 -2.386814 5.798469 19.056636 -3.245771 18.857541 -27.338368 0.121000 -2.242800 -6.177100 3.416549 10.363218 -35.157010 -0.951561 -15.438509 31.824830 5.390164 -21.742428 11.473071 -0.318700 3.628800 -10.034500 1.172008 -3.110827 -5.314573 -1.770148 -1.891912 -2.738751 5.754992 -2.020181 15.398767 -2.545500 0.916200 16.447400 -67.504713 -30.242434 42.316972 146.612472 -27.805529 -110.553430 3.467134 -2.205983 5.477961 -7.125000 0.000000 0.000000 65.503071 36.364047 33.772005 -145.180613 29.759992 -110.011298 -0.735901 0.626006 -12.766151 7.125000 0.000000 0.000000 
2.838826 16.579918 0.428982 1.521696 12.524911 10.927790 -18.340163 -13.180039 7.009178 -2.385381 5.796869 19.057332 -3.247084 18.866591 -27.340991 0.120200 -2.235400 -6.156800 3.381645 10.489263 -35.075803 -0.939649 -15.422938 31.757491 5.426443 -21.863771 11.471752 -0.319000 3.630500 -10.039400 1.173138 -3.120851 -5.315395 -1.769394 -1.897450 -2.735617 5.766345 -1.994416 15.433076 -2.532300 0.932700 16.493100 -67.424840 -30.303874 42.243919 146.549513 -27.851892 -110.517583 3.474869 -2.202918 5.472380 -7.125000 0.000000 0.000000 65.437115 36.359795 33.767418 -145.163408 29.771456 -110.000798 -0.740549 0.623249 -12.856557 7.125000 0.000000 0.000000 
2.843044 16.581172 0.426132 1.513245 12.492968 10.894246 -18.359230 -13.138957 7.027970 -2.383752 5.796504 19.060496 -3.247357 18.871773 -27.343041 0.119400 -2.227800 -6.135500 3.350258 10.605180 -34.997053 -0.927494 -15.406131 31.689291 5.461943 -21.981536 11.470174 -0.319800 3.635300 -10.052800 1.175235 -3.133734 -5.316425 -1.765961 -1.904249 -2.731778 5.776435 -1.964534 15.460814 -2.521200 0.949800 16.529900 -67.342112 -30.361822 42.173503 146.493713 -27.890074 -110.486629 3.481823 -2.200419 5.481503 -7.125000 0.000000 0.000000 65.362763 36.342186 33.776963 -145.178749 29.752329 -110.010062 -0.745949 0.621403 -12.969136 7.125000 0.000000 0.000000 
2.847034 16.582540 0.423624 1.501891 12.466769 10.864807 -18.370791 -13.099552 7.041527 -2.382026 5.796066 19.063430 -3.248276 18.875444 -27.340367 0.118800 -2.222300 -6.120400 3.322050 10.718673 -34.919594 -0.915352 -15.389255 31.621826 5.498994 -22.101558 11.462271 -0.321000 3.642000 -10.071600 1.178294 -3.148432 -5.317485 -1.759908 -1.911791 -2.726924 5.784372 -1.931944 15.482852 -2.513300 0.967300 16.559400 -67.260209 -30.414862 42.108767 146.451807 -27.913166 -110.465268 3.486989 -2.197621 5.481736 -7.125000 0.000000 0.000000 65.281907 36.315478 33.792439 -145.214654 29.714031 -110.031944 -0.751818 0.620178 -13.073438 7.125000 0.000000 0.000000 
